<svg version="1.1" id="Layer_1" xmlns="http://www.w3.org/2000/svg" xmlns:xlink="http://www.w3.org/1999/xlink" x="0px" y="0px"
	 width="100%" viewBox="0 0 2509 1886" enable-background="new 0 0 2509 1886" xml:space="preserve">
<path fill="#FFFFFF" opacity="1.000000" stroke="none" 
	d="
M1232.000000,1888.000000 
	C822.179932,1888.000000 412.359924,1888.000000 2.000000,1888.000000 
	C2.000000,1656.615234 2.000000,1425.230103 2.770156,1192.848877 
	C20.939882,1195.904663 33.788750,1206.641479 44.672256,1220.117676 
	C56.399994,1234.639038 63.199795,1251.526245 67.797821,1269.423828 
	C68.660683,1272.782349 68.468071,1276.809448 73.987228,1278.615845 
	C74.844604,1276.139282 75.594910,1273.827148 76.441635,1271.550781 
	C80.719841,1260.049316 84.178352,1248.148438 89.500229,1237.150146 
	C99.392044,1216.707397 114.538399,1201.249634 136.256439,1193.014771 
	C138.245789,1192.260376 140.014603,1190.924438 143.875931,1188.724854 
	C139.370316,1186.541260 136.643921,1185.111572 133.831879,1183.877075 
	C124.936142,1179.971680 116.739555,1175.155884 109.629860,1168.321777 
	C93.509567,1152.826050 84.136436,1133.646973 78.094086,1112.532837 
	C77.180496,1109.340576 76.763374,1105.987671 75.633781,1102.884888 
	C75.194511,1101.678345 73.526924,1100.496582 72.211609,1100.188599 
	C71.416107,1100.002441 69.764008,1101.306763 69.309471,1102.309814 
	C68.506516,1104.081665 68.352737,1106.141724 67.877670,1108.068848 
	C63.368893,1126.358887 56.413120,1143.575195 44.335320,1158.237305 
	C33.157997,1171.806396 20.363865,1183.236084 2.000000,1186.000000 
	C2.000000,791.448303 2.000000,396.896637 2.000000,2.000000 
	C574.051636,2.000000 1146.103271,2.000000 1719.122070,2.709531 
	C1717.467529,7.138129 1714.050537,10.527369 1712.350220,14.628351 
	C1698.438599,48.181652 1677.759888,76.604340 1649.330078,99.311523 
	C1589.906494,146.773407 1520.997681,158.617401 1447.481201,152.939041 
	C1416.964722,150.581970 1387.235229,143.796555 1357.536499,136.716309 
	C1307.067017,124.684258 1255.752686,118.446434 1203.973999,116.453720 
	C1176.419434,115.393288 1148.883057,116.960190 1121.376831,119.514267 
	C1075.868042,123.739975 1031.430786,132.624649 988.585999,148.619827 
	C937.793701,167.582001 892.142883,194.537750 855.237610,235.127411 
	C833.953552,258.536377 817.279236,284.715302 805.675476,314.051270 
	C800.322083,327.585449 796.030762,341.539764 791.130798,355.670074 
	C790.628052,355.801239 789.700378,356.138428 788.743713,356.279175 
	C756.069397,361.086182 724.481873,369.986450 693.971375,382.458740 
	C629.834900,408.676849 573.100037,446.458801 522.726440,493.845917 
	C486.518250,527.907471 457.449554,567.365112 435.325500,611.896729 
	C416.766602,649.252380 403.105499,688.327881 394.065674,729.058167 
	C387.945404,756.633972 383.798431,784.549377 382.609558,812.682800 
	C381.630188,835.859863 382.927765,859.154419 383.726135,882.379395 
	C384.503174,904.983032 387.977905,927.314209 393.697968,949.156372 
	C398.808502,968.671021 405.119690,987.871338 411.170532,1008.111633 
	C391.803619,1028.997070 375.460602,1053.580322 362.173767,1080.162354 
	C337.076965,1130.371582 322.753876,1183.766968 318.594299,1239.539795 
	C315.300385,1283.705688 317.493073,1327.825806 326.215942,1371.496826 
	C335.196075,1416.456055 349.597687,1459.353638 372.295258,1499.331909 
	C396.959564,1542.773926 428.102386,1580.957764 464.439880,1615.185669 
	C491.407959,1640.587891 520.434448,1663.279541 551.278015,1683.615845 
	C600.859924,1716.306763 653.899048,1742.349121 709.196350,1763.866821 
	C784.951721,1793.345337 863.139404,1814.000366 943.066956,1828.369019 
	C952.838440,1830.125488 962.705322,1831.728149 972.212952,1834.487549 
	C986.874878,1838.742920 1001.180969,1844.209351 1015.785278,1848.680664 
	C1059.335938,1862.015137 1103.838745,1871.238647 1148.889282,1877.497192 
	C1176.432983,1881.323608 1204.218140,1883.410278 1231.908691,1886.709473 
	C1231.922485,1887.140747 1232.000000,1888.000000 1232.000000,1888.000000 
M152.187439,943.152588 
	C138.224609,957.857422 121.970642,969.119873 102.868469,976.168335 
	C99.320938,977.477295 94.032875,977.464905 94.225792,982.830933 
	C94.412262,988.017639 99.700073,988.091797 103.244766,989.293213 
	C121.319473,995.419189 136.730865,1005.952820 149.703323,1019.468872 
	C171.276306,1041.946045 185.510040,1068.894531 194.074966,1098.809326 
	C196.267578,1106.467529 197.844086,1114.307129 200.199585,1121.909668 
	C200.736084,1123.641235 203.355743,1125.847046 204.970810,1125.810547 
	C206.589722,1125.773804 208.473343,1123.420776 209.630966,1121.677856 
	C210.476486,1120.404785 210.257309,1118.456909 210.642380,1116.840576 
	C215.361435,1097.032837 221.718948,1077.828247 231.329544,1059.780273 
	C245.205032,1033.723389 263.128723,1011.384277 289.511078,997.030457 
	C296.175476,993.404480 303.569458,991.141663 310.431396,987.843140 
	C312.494995,986.851196 315.223938,984.478699 315.226715,982.734741 
	C315.229523,980.957092 312.427612,978.946960 310.517212,977.475464 
	C309.272522,976.516785 307.313263,976.550293 305.868744,975.776184 
	C295.936951,970.453430 285.287842,966.078491 276.298920,959.457886 
	C245.282425,936.613464 227.824066,904.377502 216.165466,868.572266 
	C213.497253,860.377808 212.075562,851.783386 209.631927,843.505371 
	C209.101974,841.710022 206.660522,839.331238 205.071442,839.309937 
	C203.386581,839.287292 200.984299,841.424316 200.126282,843.209656 
	C198.866547,845.830872 198.749786,848.989319 198.060699,851.898621 
	C190.111511,885.459167 176.117722,916.008606 152.187439,943.152588 
z"/>
<path fill="#FFFFFF" opacity="1.000000" stroke="none" 
	d="
M2512.000000,1004.000000 
	C2512.000000,1298.540161 2512.000000,1593.080444 2512.000000,1888.000000 
	C2142.618652,1888.000000 1773.237061,1888.000000 1402.971680,1887.574341 
	C1402.088013,1887.148682 1402.102539,1886.292847 1402.955200,1886.063721 
	C1409.081055,1885.343628 1414.366821,1884.959839 1419.625366,1884.343384 
	C1447.923096,1881.026855 1476.309326,1878.299805 1504.486084,1874.153076 
	C1551.867310,1867.179932 1598.273926,1855.839478 1643.686279,1840.532593 
	C1652.169678,1837.672974 1660.571289,1834.296143 1669.283813,1832.439331 
	C1705.614746,1824.697021 1742.282227,1818.418701 1778.399292,1809.811890 
	C1856.852173,1791.116089 1932.695679,1764.897705 2004.840820,1728.393921 
	C2078.225098,1691.263062 2144.557373,1644.809692 2200.016113,1583.552856 
	C2227.627930,1553.054565 2251.015625,1519.686768 2270.130127,1483.269043 
	C2297.606934,1430.918091 2310.769775,1374.489868 2315.349854,1316.176392 
	C2319.027588,1269.346191 2316.605957,1222.540283 2305.881104,1176.444946 
	C2296.868896,1137.710083 2283.649414,1100.650879 2264.236572,1065.841064 
	C2252.367920,1044.558594 2238.398682,1024.830444 2221.797607,1006.725159 
	C2240.413330,965.410706 2248.151611,921.674072 2251.414551,877.181335 
	C2253.821533,844.358398 2252.543457,811.462463 2248.460693,778.675354 
	C2242.347168,729.580444 2229.816895,682.348206 2210.438232,636.808594 
	C2184.448242,575.731506 2146.292236,523.604004 2096.425293,479.989075 
	C2062.751465,450.537170 2026.320557,424.923401 1986.679810,404.155762 
	C1944.370239,381.989899 1900.056030,365.278839 1852.644165,357.631989 
	C1850.531494,357.291229 1848.531250,356.253143 1847.000610,355.721222 
	C1848.636719,342.638702 1850.936279,330.517273 1851.525024,318.313354 
	C1852.999146,287.755035 1853.049072,257.254578 1848.484253,226.789856 
	C1838.776978,162.003220 1814.054199,103.618797 1775.507446,50.894558 
	C1762.576294,33.207569 1748.003296,16.962723 1732.000000,2.000000 
	C1991.874634,2.000000 2251.749268,2.000000 2512.000000,2.000000 
	C2512.000000,333.381409 2512.000000,664.762939 2511.308594,996.870789 
	C2507.902344,996.392944 2505.252930,995.004883 2502.462402,994.014282 
	C2483.534424,987.295227 2467.723389,976.006775 2454.321777,961.221436 
	C2431.921143,936.507690 2417.842041,907.457214 2409.785400,875.295837 
	C2408.574951,870.463684 2407.605957,865.544373 2405.958984,860.864624 
	C2405.476807,859.494019 2403.024902,858.006775 2401.504639,858.036743 
	C2399.959473,858.067322 2398.065918,859.625061 2397.041016,861.034607 
	C2396.155518,862.252258 2396.277832,864.201294 2395.950195,865.826050 
	C2391.910889,885.847839 2385.170898,904.961792 2375.645508,922.982910 
	C2360.227295,952.153320 2339.873047,976.648621 2308.976562,990.636658 
	C2305.042480,992.417725 2301.044678,994.111084 2296.951904,995.470398 
	C2293.921387,996.476929 2290.509033,997.772339 2291.316162,1001.124512 
	C2291.842285,1003.310120 2295.160889,1004.918945 2297.397949,1006.554565 
	C2298.427979,1007.307556 2299.873779,1007.479675 2301.114502,1007.958435 
	C2317.477051,1014.273438 2332.072021,1023.396423 2344.416748,1035.879395 
	C2371.700439,1063.469727 2387.046875,1097.308838 2395.729492,1134.600708 
	C2396.631104,1138.472900 2395.283691,1144.281128 2401.908936,1144.074585 
	C2407.604492,1143.897217 2406.919434,1138.536743 2407.677490,1135.003906 
	C2411.962891,1115.032104 2418.665771,1095.915894 2428.303955,1077.955933 
	C2441.051514,1054.201782 2457.007080,1032.951050 2480.653564,1018.972900 
	C2490.583008,1013.103394 2501.520752,1008.939331 2512.000000,1004.000000 
z"/>
<path fill="#202120" opacity="1.000000" stroke="none" 
	d="
M1731.143066,2.000000 
	C1748.003296,16.962723 1762.576294,33.207569 1775.507446,50.894558 
	C1814.054199,103.618797 1838.776978,162.003220 1848.484253,226.789856 
	C1853.049072,257.254578 1852.999146,287.755035 1851.525024,318.313354 
	C1850.936279,330.517273 1848.636719,342.638702 1847.000610,355.721222 
	C1848.531250,356.253143 1850.531494,357.291229 1852.644165,357.631989 
	C1900.056030,365.278839 1944.370239,381.989899 1986.679810,404.155762 
	C2026.320557,424.923401 2062.751465,450.537170 2096.425293,479.989075 
	C2146.292236,523.604004 2184.448242,575.731506 2210.438232,636.808594 
	C2229.816895,682.348206 2242.347168,729.580444 2248.460693,778.675354 
	C2252.543457,811.462463 2253.821533,844.358398 2251.414551,877.181335 
	C2248.151611,921.674072 2240.413330,965.410706 2221.797607,1006.725159 
	C2238.398682,1024.830444 2252.367920,1044.558594 2264.236572,1065.841064 
	C2283.649414,1100.650879 2296.868896,1137.710083 2305.881104,1176.444946 
	C2316.605957,1222.540283 2319.027588,1269.346191 2315.349854,1316.176392 
	C2310.769775,1374.489868 2297.606934,1430.918091 2270.130127,1483.269043 
	C2251.015625,1519.686768 2227.627930,1553.054565 2200.016113,1583.552856 
	C2144.557373,1644.809692 2078.225098,1691.263062 2004.840820,1728.393921 
	C1932.695679,1764.897705 1856.852173,1791.116089 1778.399292,1809.811890 
	C1742.282227,1818.418701 1705.614746,1824.697021 1669.283813,1832.439331 
	C1660.571289,1834.296143 1652.169678,1837.672974 1643.686279,1840.532593 
	C1598.273926,1855.839478 1551.867310,1867.179932 1504.486084,1874.153076 
	C1476.309326,1878.299805 1447.923096,1881.026855 1419.625366,1884.343384 
	C1414.366821,1884.959839 1409.081055,1885.343628 1402.074341,1885.946411 
	C1395.620239,1886.086914 1390.899658,1886.115723 1385.264160,1886.075195 
	C1377.611206,1887.129028 1370.436279,1883.795776 1364.000000,1888.000000 
	C1333.291504,1888.000000 1302.583130,1888.000000 1270.365479,1887.400879 
	C1261.783447,1886.637817 1254.710693,1886.473755 1246.773926,1886.206543 
	C1241.238281,1886.161743 1236.566528,1886.219971 1231.894897,1886.278320 
	C1204.218140,1883.410278 1176.432983,1881.323608 1148.889282,1877.497192 
	C1103.838745,1871.238647 1059.335938,1862.015137 1015.785278,1848.680664 
	C1001.180969,1844.209351 986.874878,1838.742920 972.212952,1834.487549 
	C962.705322,1831.728149 952.838440,1830.125488 943.066956,1828.369019 
	C863.139404,1814.000366 784.951721,1793.345337 709.196350,1763.866821 
	C653.899048,1742.349121 600.859924,1716.306763 551.278015,1683.615845 
	C520.434448,1663.279541 491.407959,1640.587891 464.439880,1615.185669 
	C428.102386,1580.957764 396.959564,1542.773926 372.295258,1499.331909 
	C349.597687,1459.353638 335.196075,1416.456055 326.215942,1371.496826 
	C317.493073,1327.825806 315.300385,1283.705688 318.594299,1239.539795 
	C322.753876,1183.766968 337.076965,1130.371582 362.173767,1080.162354 
	C375.460602,1053.580322 391.803619,1028.997070 411.170532,1008.111633 
	C405.119690,987.871338 398.808502,968.671021 393.697968,949.156372 
	C387.977905,927.314209 384.503174,904.983032 383.726135,882.379395 
	C382.927765,859.154419 381.630188,835.859863 382.609558,812.682800 
	C383.798431,784.549377 387.945404,756.633972 394.065674,729.058167 
	C403.105499,688.327881 416.766602,649.252380 435.325500,611.896729 
	C457.449554,567.365112 486.518250,527.907471 522.726440,493.845917 
	C573.100037,446.458801 629.834900,408.676849 693.971375,382.458740 
	C724.481873,369.986450 756.069397,361.086182 788.743713,356.279175 
	C789.700378,356.138428 790.628052,355.801239 791.130798,355.670074 
	C796.030762,341.539764 800.322083,327.585449 805.675476,314.051270 
	C817.279236,284.715302 833.953552,258.536377 855.237610,235.127411 
	C892.142883,194.537750 937.793701,167.582001 988.585999,148.619827 
	C1031.430786,132.624649 1075.868042,123.739975 1121.376831,119.514267 
	C1148.883057,116.960190 1176.419434,115.393288 1203.973999,116.453720 
	C1255.752686,118.446434 1307.067017,124.684258 1357.536499,136.716309 
	C1387.235229,143.796555 1416.964722,150.581970 1447.481201,152.939041 
	C1520.997681,158.617401 1589.906494,146.773407 1649.330078,99.311523 
	C1677.759888,76.604340 1698.438599,48.181652 1712.350220,14.628351 
	C1714.050537,10.527369 1717.467529,7.138129 1720.044556,2.709531 
	C1723.428711,2.000000 1726.857422,2.000000 1731.143066,2.000000 
M408.161621,819.406128 
	C407.168762,852.089783 408.291290,884.637268 413.815186,916.957581 
	C418.772705,945.964050 426.179047,974.187988 439.085419,1000.789673 
	C443.587769,1010.069519 442.864349,1013.846130 435.717133,1021.279663 
	C434.562317,1022.480774 433.367615,1023.643799 432.180481,1024.813354 
	C411.778046,1044.913452 395.911987,1068.299194 383.411407,1093.895508 
	C359.662781,1142.523315 348.917725,1194.526733 346.423462,1248.157715 
	C345.250916,1273.369385 346.601349,1298.757568 347.897583,1324.010010 
	C349.524353,1355.701416 355.491638,1386.769043 365.244659,1416.976318 
	C385.527710,1479.797729 421.712189,1532.843384 467.164825,1579.891113 
	C514.139160,1628.513794 568.929321,1666.665405 628.491150,1698.197998 
	C692.365784,1732.013672 759.807495,1756.654541 829.322266,1775.900391 
	C839.673340,1778.766235 850.127319,1781.260376 861.148804,1784.084106 
	C860.658447,1782.608032 860.651672,1782.148315 860.432678,1781.998169 
	C858.518494,1780.684814 856.595093,1779.380493 854.621399,1778.159180 
	C813.609985,1752.784058 776.129028,1723.192017 743.802734,1687.159058 
	C702.508850,1641.130493 672.133972,1588.843506 651.910583,1530.499268 
	C631.190125,1470.721069 623.392639,1408.886353 622.443237,1345.985352 
	C622.257690,1333.689453 623.507751,1321.378906 623.712585,1309.068726 
	C624.217834,1278.703735 627.716309,1248.599854 632.711487,1218.742310 
	C645.889893,1139.970825 670.643066,1065.087036 709.496704,995.047668 
	C735.162781,948.780823 765.858398,906.191040 801.850647,867.453552 
	C838.542725,827.962830 879.634094,793.665039 924.894653,764.366882 
	C932.747864,759.283386 932.642883,759.220703 930.987976,749.878052 
	C926.774048,726.087891 927.398010,702.111084 928.410156,678.131836 
	C928.507263,675.832092 929.118225,673.516235 929.757019,671.284058 
	C931.975586,663.532043 937.462830,659.887329 944.537048,661.325073 
	C951.613159,662.763062 956.107910,668.504211 955.281189,675.855103 
	C952.471191,700.839783 953.272461,725.650574 957.644287,750.428162 
	C967.573914,806.704956 991.654053,855.916016 1030.501465,897.872314 
	C1065.893066,936.096069 1109.011108,962.328430 1157.595947,980.248535 
	C1202.680298,996.877502 1249.583252,1004.595032 1297.200928,1007.458130 
	C1350.300781,1010.650879 1403.041138,1007.428650 1454.442749,992.004456 
	C1520.390381,972.215454 1574.545166,935.565125 1615.217041,879.611511 
	C1642.004639,842.758850 1660.521851,801.969910 1671.400146,757.904297 
	C1675.762939,740.231445 1677.865601,721.938354 1680.040161,703.812805 
	C1681.185425,694.267822 1678.149048,692.554993 1668.841797,695.843506 
	C1644.073242,704.595093 1618.754395,709.859497 1592.459351,705.937073 
	C1579.365601,703.983765 1566.401245,700.738464 1553.636719,697.156860 
	C1545.719482,694.935242 1542.410278,687.641785 1544.616699,680.754028 
	C1546.896851,673.635986 1553.145752,670.460938 1561.455933,672.331909 
	C1563.720947,672.841858 1565.904419,673.713074 1568.126099,674.416260 
	C1584.452881,679.584778 1601.059937,681.653564 1618.252441,680.543518 
	C1633.779907,679.541077 1648.380493,675.332703 1662.775024,670.044067 
	C1688.012085,660.771851 1708.357910,681.104980 1706.197144,701.221680 
	C1704.530518,716.737732 1702.563354,732.230591 1700.292236,747.669312 
	C1698.852417,757.456970 1698.493896,757.402100 1706.991333,762.869568 
	C1737.313110,782.379333 1766.061401,804.000793 1792.700806,828.284668 
	C1860.349609,889.951782 1912.879883,962.569458 1950.189453,1046.246094 
	C1990.076904,1135.704102 2008.812256,1229.740479 2011.514893,1327.238770 
	C2012.002930,1344.848511 2011.351196,1362.554077 2010.078125,1380.132324 
	C2008.445557,1402.676025 2006.715698,1425.307007 2003.127319,1447.594482 
	C1996.492432,1488.804932 1984.867188,1528.714233 1967.949585,1566.992065 
	C1943.664795,1621.938354 1909.799316,1670.208008 1866.442383,1711.700073 
	C1839.150635,1737.817627 1808.954834,1760.257202 1776.572388,1779.732910 
	C1775.227417,1780.541748 1774.025146,1781.588501 1771.019531,1783.805786 
	C1774.640747,1783.496704 1776.183472,1783.581055 1777.606201,1783.208008 
	C1785.973267,1781.015137 1794.307373,1778.696777 1802.661621,1776.454834 
	C1881.464844,1755.308105 1957.258911,1726.622070 2028.260254,1686.042847 
	C2092.750244,1649.185059 2150.101807,1603.798828 2197.494629,1546.081299 
	C2257.537354,1472.958008 2286.392822,1388.641357 2289.777344,1294.887939 
	C2291.116455,1257.797241 2287.659424,1221.053711 2279.977051,1184.755615 
	C2271.439209,1144.415527 2257.692871,1106.020874 2236.531738,1070.437134 
	C2225.917236,1052.588379 2213.555908,1036.157104 2198.756836,1021.550293 
	C2191.060791,1013.954529 2190.738525,1011.304443 2195.127441,1001.225708 
	C2197.520020,995.731323 2199.993408,990.268188 2202.227539,984.709351 
	C2216.917969,948.157471 2223.153809,909.766357 2225.629883,870.786438 
	C2227.702393,838.164124 2226.380371,805.494934 2221.600342,773.111511 
	C2215.649902,732.798645 2205.357422,693.610962 2189.780273,655.867676 
	C2168.955078,605.409241 2140.479004,559.927734 2101.685303,521.312073 
	C2080.173828,499.899567 2057.017090,480.344299 2032.097900,462.921448 
	C1983.612671,429.021545 1931.440063,402.963348 1873.726929,388.943024 
	C1860.514893,385.733368 1846.964722,383.779175 1833.483887,381.851624 
	C1820.587524,380.007690 1816.129517,374.306946 1818.651733,361.375641 
	C1818.778809,360.723999 1819.070801,360.104156 1819.193604,359.452148 
	C1827.653809,314.552856 1829.147339,269.440582 1821.482666,224.363220 
	C1810.652710,160.671234 1784.478271,103.717995 1743.955811,53.395237 
	C1740.104614,48.612682 1735.835938,44.166386 1731.106812,38.825039 
	C1728.538208,43.466164 1726.755737,46.625637 1725.029785,49.815575 
	C1714.815552,68.693604 1702.230469,85.894897 1687.204834,101.153908 
	C1638.891602,150.217804 1578.972778,174.096985 1511.407349,179.568253 
	C1464.990845,183.326965 1418.853516,179.224945 1373.652710,167.733185 
	C1326.430176,155.727386 1278.577026,147.279358 1230.013550,144.776474 
	C1197.831055,143.117844 1165.426758,144.529160 1133.172852,145.832169 
	C1099.837036,147.178848 1067.110596,153.375397 1034.894043,162.041901 
	C991.766113,173.643570 951.209961,190.817596 914.890686,217.286011 
	C878.272156,243.972519 849.885010,277.432068 832.353516,319.319031 
	C825.705383,335.203125 821.105469,352.005310 816.442871,368.633270 
	C814.206116,376.610413 809.692810,380.497192 802.022217,381.554565 
	C799.056152,381.963409 796.015747,381.853882 793.058899,382.305695 
	C746.171631,389.470490 702.131165,405.173004 660.302307,427.209747 
	C624.801941,445.912445 592.071167,468.677490 561.430054,494.640656 
	C509.033691,539.037659 469.934631,592.879272 444.143188,656.483459 
	C423.186707,708.164124 411.733002,761.944153 408.161621,819.406128 
M1731.130005,811.850098 
	C1718.443481,802.356689 1705.571899,793.148682 1691.458252,784.614563 
	C1689.569458,789.977356 1688.156738,794.020325 1686.721436,798.055237 
	C1685.159912,802.445251 1683.678589,806.867249 1681.988770,811.207825 
	C1651.897217,888.506165 1602.345703,949.214050 1529.058716,989.318298 
	C1474.764160,1019.029480 1415.908203,1031.718750 1354.553467,1033.998169 
	C1323.227905,1035.162109 1291.971924,1033.877441 1260.774536,1030.287354 
	C1212.166748,1024.693481 1164.950806,1013.832703 1120.357788,993.400757 
	C1031.857788,952.851196 970.615295,887.557678 941.029724,793.919006 
	C940.386169,791.882019 939.471130,789.930664 938.428284,787.296631 
	C934.282898,789.970032 930.908936,792.031860 927.651184,794.263306 
	C820.319458,867.784790 743.186646,965.328674 695.782837,1086.375854 
	C667.598145,1158.346313 653.000854,1233.163208 649.577026,1310.301636 
	C647.052673,1367.175049 650.684937,1423.485474 664.131470,1478.932129 
	C686.742371,1572.167847 733.818359,1650.485229 807.491455,1712.349487 
	C858.069824,1754.821045 915.488831,1785.306030 977.206604,1808.065308 
	C1071.270996,1842.752686 1169.027710,1857.761841 1268.707642,1861.594849 
	C1317.655396,1863.477173 1366.614502,1862.605469 1415.514648,1858.550171 
	C1471.050903,1853.944580 1525.928833,1845.603027 1579.923706,1831.806030 
	C1646.757446,1814.728394 1710.507568,1790.060669 1769.315308,1753.543945 
	C1845.399414,1706.299805 1904.202515,1643.477539 1941.657837,1561.558350 
	C1972.090942,1494.997925 1984.478271,1424.522827 1985.503784,1351.902588 
	C1986.391724,1289.032959 1979.465088,1226.874756 1963.811279,1165.888062 
	C1926.839478,1021.847229 1850.862671,903.280273 1731.130005,811.850098 
z"/>
<path fill="#F7EA21" opacity="1.000000" stroke="none" 
	d="
M2512.000000,1003.250000 
	C2501.520752,1008.939331 2490.583008,1013.103394 2480.653564,1018.972900 
	C2457.007080,1032.951050 2441.051514,1054.201782 2428.303955,1077.955933 
	C2418.665771,1095.915894 2411.962891,1115.032104 2407.677490,1135.003906 
	C2406.919434,1138.536743 2407.604492,1143.897217 2401.908936,1144.074585 
	C2395.283691,1144.281128 2396.631104,1138.472900 2395.729492,1134.600708 
	C2387.046875,1097.308838 2371.700439,1063.469727 2344.416748,1035.879395 
	C2332.072021,1023.396423 2317.477051,1014.273438 2301.114502,1007.958435 
	C2299.873779,1007.479675 2298.427979,1007.307556 2297.397949,1006.554565 
	C2295.160889,1004.918945 2291.842285,1003.310120 2291.316162,1001.124512 
	C2290.509033,997.772339 2293.921387,996.476929 2296.951904,995.470398 
	C2301.044678,994.111084 2305.042480,992.417725 2308.976562,990.636658 
	C2339.873047,976.648621 2360.227295,952.153320 2375.645508,922.982910 
	C2385.170898,904.961792 2391.910889,885.847839 2395.950195,865.826050 
	C2396.277832,864.201294 2396.155518,862.252258 2397.041016,861.034607 
	C2398.065918,859.625061 2399.959473,858.067322 2401.504639,858.036743 
	C2403.024902,858.006775 2405.476807,859.494019 2405.958984,860.864624 
	C2407.605957,865.544373 2408.574951,870.463684 2409.785400,875.295837 
	C2417.842041,907.457214 2431.921143,936.507690 2454.321777,961.221436 
	C2467.723389,976.006775 2483.534424,987.295227 2502.462402,994.014282 
	C2505.252930,995.004883 2507.902344,996.392944 2511.308594,997.798584 
	C2512.000000,999.500000 2512.000000,1001.000000 2512.000000,1003.250000 
z"/>
<path fill="#F7EA22" opacity="1.000000" stroke="none" 
	d="
M2.000000,1186.750000 
	C20.363865,1183.236084 33.157997,1171.806396 44.335320,1158.237305 
	C56.413120,1143.575195 63.368893,1126.358887 67.877670,1108.068848 
	C68.352737,1106.141724 68.506516,1104.081665 69.309471,1102.309814 
	C69.764008,1101.306763 71.416107,1100.002441 72.211609,1100.188599 
	C73.526924,1100.496582 75.194511,1101.678345 75.633781,1102.884888 
	C76.763374,1105.987671 77.180496,1109.340576 78.094086,1112.532837 
	C84.136436,1133.646973 93.509567,1152.826050 109.629860,1168.321777 
	C116.739555,1175.155884 124.936142,1179.971680 133.831879,1183.877075 
	C136.643921,1185.111572 139.370316,1186.541260 143.875931,1188.724854 
	C140.014603,1190.924438 138.245789,1192.260376 136.256439,1193.014771 
	C114.538399,1201.249634 99.392044,1216.707397 89.500229,1237.150146 
	C84.178352,1248.148438 80.719841,1260.049316 76.441635,1271.550781 
	C75.594910,1273.827148 74.844604,1276.139282 73.987228,1278.615845 
	C68.468071,1276.809448 68.660683,1272.782349 67.797821,1269.423828 
	C63.199795,1251.526245 56.399994,1234.639038 44.672256,1220.117676 
	C33.788750,1206.641479 20.939882,1195.904663 2.770156,1191.926392 
	C2.000000,1190.500000 2.000000,1189.000000 2.000000,1186.750000 
z"/>
<path fill="#545553" opacity="1.000000" stroke="none" 
	d="
M1247.637817,1886.309570 
	C1254.710693,1886.473755 1261.783447,1886.637817 1269.428223,1887.400879 
	C1263.277466,1888.000000 1256.554810,1888.000000 1248.809814,1887.580811 
	C1247.787354,1887.161499 1247.637817,1886.309692 1247.637817,1886.309570 
z"/>
<path fill="#585957" opacity="1.000000" stroke="none" 
	d="
M1364.916138,1888.000000 
	C1370.436279,1883.795776 1377.611206,1887.129028 1385.128662,1886.530273 
	C1385.907959,1887.054688 1386.000000,1888.000000 1386.000000,1888.000000 
	C1379.277466,1888.000000 1372.554810,1888.000000 1364.916138,1888.000000 
z"/>
<path fill="#C3C3C2" opacity="1.000000" stroke="none" 
	d="
M1246.773926,1886.206543 
	C1247.637817,1886.309692 1247.787354,1887.161499 1247.893677,1887.580811 
	C1243.258911,1888.000000 1238.517700,1888.000000 1232.888306,1888.000000 
	C1232.000000,1888.000000 1231.922485,1887.140747 1231.908691,1886.709473 
	C1236.566528,1886.219971 1241.238281,1886.161743 1246.773926,1886.206543 
z"/>
<path fill="#C6C6C6" opacity="1.000000" stroke="none" 
	d="
M1386.888306,1888.000000 
	C1386.000000,1888.000000 1385.907959,1887.054688 1386.043457,1886.599609 
	C1390.899658,1886.115723 1395.620239,1886.086914 1401.221680,1886.175537 
	C1402.102539,1886.292847 1402.088013,1887.148682 1402.043945,1887.574341 
	C1397.258911,1888.000000 1392.517700,1888.000000 1386.888306,1888.000000 
z"/>
<path fill="#F7EA21" opacity="1.000000" stroke="none" 
	d="
M152.641479,942.602783 
	C176.117722,916.008606 190.111511,885.459167 198.060699,851.898621 
	C198.749786,848.989319 198.866547,845.830872 200.126282,843.209656 
	C200.984299,841.424316 203.386581,839.287292 205.071442,839.309937 
	C206.660522,839.331238 209.101974,841.710022 209.631927,843.505371 
	C212.075562,851.783386 213.497253,860.377808 216.165466,868.572266 
	C227.824066,904.377502 245.282425,936.613464 276.298920,959.457886 
	C285.287842,966.078491 295.936951,970.453430 305.868744,975.776184 
	C307.313263,976.550293 309.272522,976.516785 310.517212,977.475464 
	C312.427612,978.946960 315.229523,980.957092 315.226715,982.734741 
	C315.223938,984.478699 312.494995,986.851196 310.431396,987.843140 
	C303.569458,991.141663 296.175476,993.404480 289.511078,997.030457 
	C263.128723,1011.384277 245.205032,1033.723389 231.329544,1059.780273 
	C221.718948,1077.828247 215.361435,1097.032837 210.642380,1116.840576 
	C210.257309,1118.456909 210.476486,1120.404785 209.630966,1121.677856 
	C208.473343,1123.420776 206.589722,1125.773804 204.970810,1125.810547 
	C203.355743,1125.847046 200.736084,1123.641235 200.199585,1121.909668 
	C197.844086,1114.307129 196.267578,1106.467529 194.074966,1098.809326 
	C185.510040,1068.894531 171.276306,1041.946045 149.703323,1019.468872 
	C136.730865,1005.952820 121.319473,995.419189 103.244766,989.293213 
	C99.700073,988.091797 94.412262,988.017639 94.225792,982.830933 
	C94.032875,977.464905 99.320938,977.477295 102.868469,976.168335 
	C121.970642,969.119873 138.224609,957.857422 152.641479,942.602783 
z"/>
<path fill="#0C75BB" opacity="1.000000" stroke="none" 
	d="
M408.191010,818.456055 
	C411.733002,761.944153 423.186707,708.164124 444.143188,656.483459 
	C469.934631,592.879272 509.033691,539.037659 561.430054,494.640656 
	C592.071167,468.677490 624.801941,445.912445 660.302307,427.209747 
	C702.131165,405.173004 746.171631,389.470490 793.058899,382.305695 
	C796.015747,381.853882 799.056152,381.963409 802.022217,381.554565 
	C809.692810,380.497192 814.206116,376.610413 816.442871,368.633270 
	C821.105469,352.005310 825.705383,335.203125 832.353516,319.319031 
	C849.885010,277.432068 878.272156,243.972519 914.890686,217.286011 
	C951.209961,190.817596 991.766113,173.643570 1034.894043,162.041901 
	C1067.110596,153.375397 1099.837036,147.178848 1133.172852,145.832169 
	C1165.426758,144.529160 1197.831055,143.117844 1230.013550,144.776474 
	C1278.577026,147.279358 1326.430176,155.727386 1373.652710,167.733185 
	C1418.853516,179.224945 1464.990845,183.326965 1511.407349,179.568253 
	C1578.972778,174.096985 1638.891602,150.217804 1687.204834,101.153908 
	C1702.230469,85.894897 1714.815552,68.693604 1725.029785,49.815575 
	C1726.755737,46.625637 1728.538208,43.466164 1731.106812,38.825039 
	C1735.835938,44.166386 1740.104614,48.612682 1743.955811,53.395237 
	C1784.478271,103.717995 1810.652710,160.671234 1821.482666,224.363220 
	C1829.147339,269.440582 1827.653809,314.552856 1819.193604,359.452148 
	C1819.070801,360.104156 1818.778809,360.723999 1818.651733,361.375641 
	C1816.129517,374.306946 1820.587524,380.007690 1833.483887,381.851624 
	C1846.964722,383.779175 1860.514893,385.733368 1873.726929,388.943024 
	C1931.440063,402.963348 1983.612671,429.021545 2032.097900,462.921448 
	C2057.017090,480.344299 2080.173828,499.899567 2101.685303,521.312073 
	C2140.479004,559.927734 2168.955078,605.409241 2189.780273,655.867676 
	C2205.357422,693.610962 2215.649902,732.798645 2221.600342,773.111511 
	C2226.380371,805.494934 2227.702393,838.164124 2225.629883,870.786438 
	C2223.153809,909.766357 2216.917969,948.157471 2202.227539,984.709351 
	C2199.993408,990.268188 2197.520020,995.731323 2195.127441,1001.225708 
	C2190.738525,1011.304443 2191.060791,1013.954529 2198.756836,1021.550293 
	C2213.555908,1036.157104 2225.917236,1052.588379 2236.531738,1070.437134 
	C2257.692871,1106.020874 2271.439209,1144.415527 2279.977051,1184.755615 
	C2287.659424,1221.053711 2291.116455,1257.797241 2289.777344,1294.887939 
	C2286.392822,1388.641357 2257.537354,1472.958008 2197.494629,1546.081299 
	C2150.101807,1603.798828 2092.750244,1649.185059 2028.260254,1686.042847 
	C1957.258911,1726.622070 1881.464844,1755.308105 1802.661621,1776.454834 
	C1794.307373,1778.696777 1785.973267,1781.015137 1777.606201,1783.208008 
	C1776.183472,1783.581055 1774.640747,1783.496704 1771.019531,1783.805786 
	C1774.025146,1781.588501 1775.227417,1780.541748 1776.572388,1779.732910 
	C1808.954834,1760.257202 1839.150635,1737.817627 1866.442383,1711.700073 
	C1909.799316,1670.208008 1943.664795,1621.938354 1967.949585,1566.992065 
	C1984.867188,1528.714233 1996.492432,1488.804932 2003.127319,1447.594482 
	C2006.715698,1425.307007 2008.445557,1402.676025 2010.078125,1380.132324 
	C2011.351196,1362.554077 2012.002930,1344.848511 2011.514893,1327.238770 
	C2008.812256,1229.740479 1990.076904,1135.704102 1950.189453,1046.246094 
	C1912.879883,962.569458 1860.349609,889.951782 1792.700806,828.284668 
	C1766.061401,804.000793 1737.313110,782.379333 1706.991333,762.869568 
	C1698.493896,757.402100 1698.852417,757.456970 1700.292236,747.669312 
	C1702.563354,732.230591 1704.530518,716.737732 1706.197144,701.221680 
	C1708.357910,681.104980 1688.012085,660.771851 1662.775024,670.044067 
	C1648.380493,675.332703 1633.779907,679.541077 1618.252441,680.543518 
	C1601.059937,681.653564 1584.452881,679.584778 1568.126099,674.416260 
	C1565.904419,673.713074 1563.720947,672.841858 1561.455933,672.331909 
	C1553.145752,670.460938 1546.896851,673.635986 1544.616699,680.754028 
	C1542.410278,687.641785 1545.719482,694.935242 1553.636719,697.156860 
	C1566.401245,700.738464 1579.365601,703.983765 1592.459351,705.937073 
	C1618.754395,709.859497 1644.073242,704.595093 1668.841797,695.843506 
	C1678.149048,692.554993 1681.185425,694.267822 1680.040161,703.812805 
	C1677.865601,721.938354 1675.762939,740.231445 1671.400146,757.904297 
	C1660.521851,801.969910 1642.004639,842.758850 1615.217041,879.611511 
	C1574.545166,935.565125 1520.390381,972.215454 1454.442749,992.004456 
	C1403.041138,1007.428650 1350.300781,1010.650879 1297.200928,1007.458130 
	C1249.583252,1004.595032 1202.680298,996.877502 1157.595947,980.248535 
	C1109.011108,962.328430 1065.893066,936.096069 1030.501465,897.872314 
	C991.654053,855.916016 967.573914,806.704956 957.644287,750.428162 
	C953.272461,725.650574 952.471191,700.839783 955.281189,675.855103 
	C956.107910,668.504211 951.613159,662.763062 944.537048,661.325073 
	C937.462830,659.887329 931.975586,663.532043 929.757019,671.284058 
	C929.118225,673.516235 928.507263,675.832092 928.410156,678.131836 
	C927.398010,702.111084 926.774048,726.087891 930.987976,749.878052 
	C932.642883,759.220703 932.747864,759.283386 924.894653,764.366882 
	C879.634094,793.665039 838.542725,827.962830 801.850647,867.453552 
	C765.858398,906.191040 735.162781,948.780823 709.496704,995.047668 
	C670.643066,1065.087036 645.889893,1139.970825 632.711487,1218.742310 
	C627.716309,1248.599854 624.217834,1278.703735 623.712585,1309.068726 
	C623.507751,1321.378906 622.257690,1333.689453 622.443237,1345.985352 
	C623.392639,1408.886353 631.190125,1470.721069 651.910583,1530.499268 
	C672.133972,1588.843506 702.508850,1641.130493 743.802734,1687.159058 
	C776.129028,1723.192017 813.609985,1752.784058 854.621399,1778.159180 
	C856.595093,1779.380493 858.518494,1780.684814 860.432678,1781.998169 
	C860.651672,1782.148315 860.658447,1782.608032 861.148804,1784.084106 
	C850.127319,1781.260376 839.673340,1778.766235 829.322266,1775.900391 
	C759.807495,1756.654541 692.365784,1732.013672 628.491150,1698.197998 
	C568.929321,1666.665405 514.139160,1628.513794 467.164825,1579.891113 
	C421.712189,1532.843384 385.527710,1479.797729 365.244659,1416.976318 
	C355.491638,1386.769043 349.524353,1355.701416 347.897583,1324.010010 
	C346.601349,1298.757568 345.250916,1273.369385 346.423462,1248.157715 
	C348.917725,1194.526733 359.662781,1142.523315 383.411407,1093.895508 
	C395.911987,1068.299194 411.778046,1044.913452 432.180481,1024.813354 
	C433.367615,1023.643799 434.562317,1022.480774 435.717133,1021.279663 
	C442.864349,1013.846130 443.587769,1010.069519 439.085419,1000.789673 
	C426.179047,974.187988 418.772705,945.964050 413.815186,916.957581 
	C408.291290,884.637268 407.168762,852.089783 408.191010,818.456055 
M2008.925415,847.894470 
	C2015.664185,836.436707 2023.420898,825.448059 2028.955933,813.435730 
	C2047.548950,773.084167 2049.836914,731.877197 2031.721680,690.708923 
	C2018.100830,659.754395 1996.471680,635.308838 1968.100098,616.851807 
	C1940.808838,599.097534 1910.398315,593.031067 1879.133789,598.903137 
	C1819.079102,610.182495 1776.564819,645.544312 1750.137817,700.333496 
	C1744.375610,712.279846 1746.194580,717.331421 1757.105225,724.623596 
	C1825.316040,770.212341 1883.771362,826.028503 1932.640991,891.910889 
	C1941.438477,903.771179 1945.917236,904.574768 1958.346069,896.250183 
	C1977.600220,883.354187 1994.224487,867.655823 2008.925415,847.894470 
M653.085266,626.041199 
	C643.897705,635.176270 633.820557,643.585876 625.676758,653.572144 
	C590.861877,696.263428 581.259399,744.150818 598.574951,796.772217 
	C610.475525,832.937805 632.735474,861.979065 661.952820,885.897949 
	C667.859863,890.733765 674.129822,895.231995 680.666016,899.165344 
	C688.040833,903.603577 693.514832,902.170105 699.026733,895.439331 
	C699.867798,894.412354 700.523499,893.235962 701.317627,892.167847 
	C740.489929,839.479431 785.725769,792.711487 837.973267,752.878967 
	C851.466614,742.591919 865.553223,733.084229 879.341980,723.183167 
	C887.498108,717.326660 888.926025,712.720947 885.463135,703.507935 
	C884.644775,701.330627 883.593506,699.238770 882.609680,697.126099 
	C868.137329,666.046936 845.517334,642.079773 817.301575,623.228516 
	C797.381836,609.920044 775.438293,601.083679 751.617432,598.262268 
	C715.663086,594.003723 682.871765,602.450073 653.085266,626.041199 
z"/>
<path fill="#FDD17B" opacity="1.000000" stroke="none" 
	d="
M1731.707886,812.267578 
	C1850.862671,903.280273 1926.839478,1021.847229 1963.811279,1165.888062 
	C1979.465088,1226.874756 1986.391724,1289.032959 1985.503784,1351.902588 
	C1984.478271,1424.522827 1972.090942,1494.997925 1941.657837,1561.558350 
	C1904.202515,1643.477539 1845.399414,1706.299805 1769.315308,1753.543945 
	C1710.507568,1790.060669 1646.757446,1814.728394 1579.923706,1831.806030 
	C1525.928833,1845.603027 1471.050903,1853.944580 1415.514648,1858.550171 
	C1366.614502,1862.605469 1317.655396,1863.477173 1268.707642,1861.594849 
	C1169.027710,1857.761841 1071.270996,1842.752686 977.206604,1808.065308 
	C915.488831,1785.306030 858.069824,1754.821045 807.491455,1712.349487 
	C733.818359,1650.485229 686.742371,1572.167847 664.131470,1478.932129 
	C650.684937,1423.485474 647.052673,1367.175049 649.577026,1310.301636 
	C653.000854,1233.163208 667.598145,1158.346313 695.782837,1086.375854 
	C743.186646,965.328674 820.319458,867.784790 927.651184,794.263306 
	C930.908936,792.031860 934.282898,789.970032 938.428284,787.296631 
	C939.471130,789.930664 940.386169,791.882019 941.029724,793.919006 
	C970.615295,887.557678 1031.857788,952.851196 1120.357788,993.400757 
	C1164.950806,1013.832703 1212.166748,1024.693481 1260.774536,1030.287354 
	C1291.971924,1033.877441 1323.227905,1035.162109 1354.553467,1033.998169 
	C1415.908203,1031.718750 1474.764160,1019.029480 1529.058716,989.318298 
	C1602.345703,949.214050 1651.897217,888.506165 1681.988770,811.207825 
	C1683.678589,806.867249 1685.159912,802.445251 1686.721436,798.055237 
	C1688.156738,794.020325 1689.569458,789.977356 1691.458252,784.614563 
	C1705.571899,793.148682 1718.443481,802.356689 1731.707886,812.267578 
M1224.122803,1388.008301 
	C1203.311523,1395.711548 1184.058105,1406.286255 1167.753418,1421.359863 
	C1136.983398,1449.806274 1120.950928,1484.597656 1123.741333,1527.228149 
	C1124.741089,1542.501831 1128.806274,1556.698853 1136.596558,1569.761963 
	C1155.041016,1600.690796 1184.319702,1612.593384 1218.409424,1615.820068 
	C1232.513672,1617.155029 1246.192871,1613.931396 1260.042358,1613.496582 
	C1261.209473,1625.439941 1263.878174,1637.073853 1268.356079,1648.171875 
	C1273.622925,1661.224609 1280.747070,1673.091309 1291.483521,1682.633423 
	C1308.152222,1697.447876 1327.786621,1696.861694 1343.131348,1682.052734 
	C1363.071411,1662.808960 1371.879883,1638.758057 1375.771118,1611.828125 
	C1393.731689,1615.744629 1411.735840,1617.687988 1430.043945,1614.043823 
	C1467.872925,1606.514160 1495.223145,1586.721191 1506.680298,1548.540039 
	C1510.798218,1534.816650 1511.937134,1520.868774 1510.466553,1506.345947 
	C1508.510620,1487.031372 1502.382446,1469.497559 1492.627686,1453.019165 
	C1478.504639,1429.162231 1458.425171,1411.635864 1433.981323,1399.038574 
	C1425.767578,1394.805664 1417.051880,1391.547119 1407.781128,1386.707886 
	C1403.966919,1379.157349 1397.093140,1376.223877 1389.406860,1374.444946 
	C1341.055908,1363.254761 1292.726196,1363.350952 1244.376709,1374.513428 
	C1236.183228,1376.405029 1229.592041,1380.238647 1224.122803,1388.008301 
M1180.019653,1283.096191 
	C1158.422241,1253.282837 1116.124146,1257.307739 1100.453979,1295.085571 
	C1090.421021,1319.272827 1092.888306,1342.893799 1109.888550,1363.521606 
	C1126.565186,1383.756714 1153.773071,1385.711670 1172.541626,1368.176147 
	C1177.987915,1363.087646 1182.801758,1356.583008 1185.851440,1349.803467 
	C1195.979858,1327.287964 1194.312134,1305.217041 1180.019653,1283.096191 
M1463.258667,1369.862305 
	C1482.381714,1385.273926 1505.324097,1381.856812 1520.519775,1367.716553 
	C1545.576660,1344.399780 1545.390991,1298.286377 1520.135010,1275.292480 
	C1502.490479,1259.228271 1478.019897,1259.575439 1460.634766,1275.898926 
	C1435.472168,1299.525146 1435.762451,1345.869263 1463.258667,1369.862305 
M1174.040771,1194.919800 
	C1152.940308,1189.063110 1131.870117,1183.093750 1110.725220,1177.402344 
	C1101.630249,1174.954224 1094.023682,1179.128662 1091.875244,1187.143066 
	C1089.630127,1195.518311 1093.652588,1202.699585 1102.642212,1205.625977 
	C1108.945557,1207.677734 1115.414062,1209.221436 1121.805298,1211.004883 
	C1138.743530,1215.731201 1155.628418,1220.661011 1172.639771,1225.107300 
	C1180.503174,1227.162598 1187.614990,1222.938354 1190.114258,1215.700195 
	C1192.683838,1208.258667 1189.636230,1201.127075 1182.152100,1197.552856 
	C1180.082397,1196.564453 1177.745728,1196.135254 1174.040771,1194.919800 
M1463.678955,1224.526855 
	C1466.882080,1223.669189 1470.093018,1222.839355 1473.287109,1221.949341 
	C1492.775269,1216.519897 1512.316162,1211.267700 1531.720581,1205.552856 
	C1540.729004,1202.900024 1544.724243,1195.249390 1542.312866,1187.054932 
	C1539.911621,1178.894653 1532.680420,1175.125366 1523.421753,1177.399902 
	C1517.947388,1178.744751 1512.537476,1180.352905 1507.105103,1181.865967 
	C1490.171997,1186.582520 1473.214844,1191.215210 1456.321411,1196.069824 
	C1446.249268,1198.964233 1441.913452,1205.509399 1443.765625,1214.315552 
	C1445.429810,1222.227539 1451.632690,1225.850586 1463.678955,1224.526855 
z"/>
<path fill="#20211F" opacity="1.000000" stroke="none" 
	d="
M2008.482910,848.457275 
	C1994.224487,867.655823 1977.600220,883.354187 1958.346069,896.250183 
	C1945.917236,904.574768 1941.438477,903.771179 1932.640991,891.910889 
	C1883.771362,826.028503 1825.316040,770.212341 1757.105225,724.623596 
	C1746.194580,717.331421 1744.375610,712.279846 1750.137817,700.333496 
	C1776.564819,645.544312 1819.079102,610.182495 1879.133789,598.903137 
	C1910.398315,593.031067 1940.808838,599.097534 1968.100098,616.851807 
	C1996.471680,635.308838 2018.100830,659.754395 2031.721680,690.708923 
	C2049.836914,731.877197 2047.548950,773.084167 2028.955933,813.435730 
	C2023.420898,825.448059 2015.664185,836.436707 2008.482910,848.457275 
M1867.665771,779.329041 
	C1897.515015,807.268127 1924.398682,837.921997 1949.441650,870.620605 
	C1977.247925,849.826355 1997.405640,824.734863 2009.243774,793.361572 
	C2016.379883,774.449768 2019.715942,754.874817 2016.942261,734.589050 
	C2011.396729,694.033203 1989.502075,663.724365 1956.770020,640.847168 
	C1932.603760,623.956909 1905.333862,619.108948 1876.740356,625.904236 
	C1832.431763,636.434204 1800.289673,663.275208 1778.018066,702.507324 
	C1777.427979,703.546570 1777.319214,704.859131 1776.880859,706.418762 
	C1808.763916,728.323303 1838.745361,752.052185 1867.665771,779.329041 
z"/>
<path fill="#1F211F" opacity="1.000000" stroke="none" 
	d="
M653.630859,625.585938 
	C682.871765,602.450073 715.663086,594.003723 751.617432,598.262268 
	C775.438293,601.083679 797.381836,609.920044 817.301575,623.228516 
	C845.517334,642.079773 868.137329,666.046936 882.609680,697.126099 
	C883.593506,699.238770 884.644775,701.330627 885.463135,703.507935 
	C888.926025,712.720947 887.498108,717.326660 879.341980,723.183167 
	C865.553223,733.084229 851.466614,742.591919 837.973267,752.878967 
	C785.725769,792.711487 740.489929,839.479431 701.317627,892.167847 
	C700.523499,893.235962 699.867798,894.412354 699.026733,895.439331 
	C693.514832,902.170105 688.040833,903.603577 680.666016,899.165344 
	C674.129822,895.231995 667.859863,890.733765 661.952820,885.897949 
	C632.735474,861.979065 610.475525,832.937805 598.574951,796.772217 
	C581.259399,744.150818 590.861877,696.263428 625.676758,653.572144 
	C633.820557,643.585876 643.897705,635.176270 653.630859,625.585938 
M843.065979,682.005798 
	C826.091003,660.378174 805.330017,643.447388 779.882568,632.898743 
	C742.407349,617.364319 706.459229,619.689819 672.953613,643.870300 
	C659.041504,653.910461 647.458008,666.278809 637.932373,680.511475 
	C615.328003,714.285583 610.336182,750.497192 623.474670,789.030151 
	C634.091980,820.168884 653.096680,845.364014 678.579468,865.863770 
	C680.535461,867.437317 682.785217,868.645630 685.216431,870.231018 
	C733.890869,805.666565 791.492554,751.315063 858.582214,705.562805 
	C853.316956,697.494202 848.633728,690.317566 843.065979,682.005798 
z"/>
<path fill="#FFFFFE" opacity="1.000000" stroke="none" 
	d="
M1259.968872,1611.789062 
	C1246.192871,1613.931396 1232.513672,1617.155029 1218.409424,1615.820068 
	C1184.319702,1612.593384 1155.041016,1600.690796 1136.596558,1569.761963 
	C1128.806274,1556.698853 1124.741089,1542.501831 1123.741333,1527.228149 
	C1120.950928,1484.597656 1136.983398,1449.806274 1167.753418,1421.359863 
	C1184.058105,1406.286255 1203.311523,1395.711548 1224.785156,1388.720459 
	C1222.778320,1396.566040 1224.061890,1403.340698 1228.152344,1409.382812 
	C1234.282593,1418.438110 1239.993774,1428.013306 1247.437134,1435.901123 
	C1274.664062,1464.753662 1308.161499,1472.701050 1345.837646,1462.046509 
	C1372.991333,1454.367432 1390.910156,1435.075439 1405.008301,1411.550293 
	C1409.561035,1403.953491 1411.343872,1396.343018 1408.565552,1387.843140 
	C1417.051880,1391.547119 1425.767578,1394.805664 1433.981323,1399.038574 
	C1458.425171,1411.635864 1478.504639,1429.162231 1492.627686,1453.019165 
	C1502.382446,1469.497559 1508.510620,1487.031372 1510.466553,1506.345947 
	C1511.937134,1520.868774 1510.798218,1534.816650 1506.680298,1548.540039 
	C1495.223145,1586.721191 1467.872925,1606.514160 1430.043945,1614.043823 
	C1411.735840,1617.687988 1393.731689,1615.744629 1374.433594,1611.299072 
	C1351.105347,1603.827881 1332.259277,1591.972168 1318.126587,1574.973877 
	C1307.576172,1583.316772 1298.227051,1591.880371 1287.721558,1598.649658 
	C1279.190430,1604.146729 1269.271973,1607.490356 1259.968872,1611.789062 
z"/>
<path fill="#0F76BB" opacity="1.000000" stroke="none" 
	d="
M1408.173340,1387.275513 
	C1411.343872,1396.343018 1409.561035,1403.953491 1405.008301,1411.550293 
	C1390.910156,1435.075439 1372.991333,1454.367432 1345.837646,1462.046509 
	C1308.161499,1472.701050 1274.664062,1464.753662 1247.437134,1435.901123 
	C1239.993774,1428.013306 1234.282593,1418.438110 1228.152344,1409.382812 
	C1224.061890,1403.340698 1222.778320,1396.566040 1225.507812,1388.642944 
	C1229.592041,1380.238647 1236.183228,1376.405029 1244.376709,1374.513428 
	C1292.726196,1363.350952 1341.055908,1363.254761 1389.406860,1374.444946 
	C1397.093140,1376.223877 1403.966919,1379.157349 1408.173340,1387.275513 
z"/>
<path fill="#EF889D" opacity="1.000000" stroke="none" 
	d="
M1260.005615,1612.642822 
	C1269.271973,1607.490356 1279.190430,1604.146729 1287.721558,1598.649658 
	C1298.227051,1591.880371 1307.576172,1583.316772 1318.126587,1574.973877 
	C1332.259277,1591.972168 1351.105347,1603.827881 1373.601074,1611.264404 
	C1371.879883,1638.758057 1363.071411,1662.808960 1343.131348,1682.052734 
	C1327.786621,1696.861694 1308.152222,1697.447876 1291.483521,1682.633423 
	C1280.747070,1673.091309 1273.622925,1661.224609 1268.356079,1648.171875 
	C1263.878174,1637.073853 1261.209473,1625.439941 1260.005615,1612.642822 
z"/>
<path fill="#22221F" opacity="1.000000" stroke="none" 
	d="
M1180.430054,1283.686401 
	C1194.312134,1305.217041 1195.979858,1327.287964 1185.851440,1349.803467 
	C1182.801758,1356.583008 1177.987915,1363.087646 1172.541626,1368.176147 
	C1153.773071,1385.711670 1126.565186,1383.756714 1109.888550,1363.521606 
	C1092.888306,1342.893799 1090.421021,1319.272827 1100.453979,1295.085571 
	C1116.124146,1257.307739 1158.422241,1253.282837 1180.430054,1283.686401 
M1124.170776,1289.425293 
	C1123.034668,1291.445801 1121.550293,1293.348633 1120.821167,1295.506470 
	C1117.121582,1306.453369 1122.888794,1317.373535 1133.953247,1320.710693 
	C1143.854980,1323.697021 1154.809570,1317.979858 1157.882935,1308.221680 
	C1161.338745,1297.249512 1155.496704,1286.329712 1144.414062,1283.051758 
	C1136.937134,1280.840332 1130.731934,1283.323730 1124.170776,1289.425293 
M1167.634521,1349.144775 
	C1166.607056,1346.769531 1166.036743,1344.019897 1164.459961,1342.094604 
	C1160.837402,1337.671631 1154.848267,1337.201416 1150.261353,1340.455933 
	C1145.829468,1343.600342 1144.346313,1349.740356 1146.869873,1354.495239 
	C1149.372559,1359.210693 1155.723145,1362.050049 1160.317505,1359.319336 
	C1163.358154,1357.511963 1165.160645,1353.621826 1167.634521,1349.144775 
z"/>
<path fill="#22221F" opacity="1.000000" stroke="none" 
	d="
M1462.712769,1369.395264 
	C1435.762451,1345.869263 1435.472168,1299.525146 1460.634766,1275.898926 
	C1478.019897,1259.575439 1502.490479,1259.228271 1520.135010,1275.292480 
	C1545.390991,1298.286377 1545.576660,1344.399780 1520.519775,1367.716553 
	C1505.324097,1381.856812 1482.381714,1385.273926 1462.712769,1369.395264 
M1489.947388,1282.556396 
	C1486.370483,1282.963257 1482.547729,1282.698730 1479.261719,1283.900635 
	C1468.592285,1287.804443 1463.869141,1299.908203 1468.548096,1310.226562 
	C1473.248413,1320.591919 1486.602417,1324.663330 1496.474976,1318.740967 
	C1506.122559,1312.953613 1509.241455,1300.032959 1502.393799,1291.074951 
	C1499.752197,1287.618774 1495.149414,1285.661621 1489.947388,1282.556396 
M1513.583496,1353.881836 
	C1513.715576,1351.294556 1514.403076,1348.584839 1513.864990,1346.145386 
	C1512.716431,1340.938721 1506.837158,1337.498413 1501.729492,1338.494751 
	C1496.469604,1339.520630 1492.384277,1344.602295 1492.623535,1349.821777 
	C1492.873901,1355.284424 1497.183105,1359.672363 1502.673828,1360.110474 
	C1506.988892,1360.454590 1510.354248,1358.875244 1513.583496,1353.881836 
z"/>
<path fill="#23221F" opacity="1.000000" stroke="none" 
	d="
M1174.786133,1195.184570 
	C1177.745728,1196.135254 1180.082397,1196.564453 1182.152100,1197.552856 
	C1189.636230,1201.127075 1192.683838,1208.258667 1190.114258,1215.700195 
	C1187.614990,1222.938354 1180.503174,1227.162598 1172.639771,1225.107300 
	C1155.628418,1220.661011 1138.743530,1215.731201 1121.805298,1211.004883 
	C1115.414062,1209.221436 1108.945557,1207.677734 1102.642212,1205.625977 
	C1093.652588,1202.699585 1089.630127,1195.518311 1091.875244,1187.143066 
	C1094.023682,1179.128662 1101.630249,1174.954224 1110.725220,1177.402344 
	C1131.870117,1183.093750 1152.940308,1189.063110 1174.786133,1195.184570 
z"/>
<path fill="#22221E" opacity="1.000000" stroke="none" 
	d="
M1462.908203,1224.786743 
	C1451.632690,1225.850586 1445.429810,1222.227539 1443.765625,1214.315552 
	C1441.913452,1205.509399 1446.249268,1198.964233 1456.321411,1196.069824 
	C1473.214844,1191.215210 1490.171997,1186.582520 1507.105103,1181.865967 
	C1512.537476,1180.352905 1517.947388,1178.744751 1523.421753,1177.399902 
	C1532.680420,1175.125366 1539.911621,1178.894653 1542.312866,1187.054932 
	C1544.724243,1195.249390 1540.729004,1202.900024 1531.720581,1205.552856 
	C1512.316162,1211.267700 1492.775269,1216.519897 1473.287109,1221.949341 
	C1470.093018,1222.839355 1466.882080,1223.669189 1462.908203,1224.786743 
z"/>
<path fill="#FCD07A" opacity="1.000000" stroke="none" 
	d="
M1867.152832,778.844055 
	C1838.745361,752.052185 1808.763916,728.323303 1776.880859,706.418762 
	C1777.319214,704.859131 1777.427979,703.546570 1778.018066,702.507324 
	C1800.289673,663.275208 1832.431763,636.434204 1876.740356,625.904236 
	C1905.333862,619.108948 1932.603760,623.956909 1956.770020,640.847168 
	C1989.502075,663.724365 2011.396729,694.033203 2016.942261,734.589050 
	C2019.715942,754.874817 2016.379883,774.449768 2009.243774,793.361572 
	C1997.405640,824.734863 1977.247925,849.826355 1949.441650,870.620605 
	C1924.398682,837.921997 1897.515015,807.268127 1867.152832,778.844055 
z"/>
<path fill="#FCD07A" opacity="1.000000" stroke="none" 
	d="
M843.508301,682.573364 
	C848.633728,690.317566 853.316956,697.494202 858.582214,705.562805 
	C791.492554,751.315063 733.890869,805.666565 685.216431,870.231018 
	C682.785217,868.645630 680.535461,867.437317 678.579468,865.863770 
	C653.096680,845.364014 634.091980,820.168884 623.474670,789.030151 
	C610.336182,750.497192 615.328003,714.285583 637.932373,680.511475 
	C647.458008,666.278809 659.041504,653.910461 672.953613,643.870300 
	C706.459229,619.689819 742.407349,617.364319 779.882568,632.898743 
	C805.330017,643.447388 826.091003,660.378174 843.508301,682.573364 
z"/>
<path fill="#F7F7F7" opacity="1.000000" stroke="none" 
	d="
M1124.683838,1288.847412 
	C1130.731934,1283.323730 1136.937134,1280.840332 1144.414062,1283.051758 
	C1155.496704,1286.329712 1161.338745,1297.249512 1157.882935,1308.221680 
	C1154.809570,1317.979858 1143.854980,1323.697021 1133.953247,1320.710693 
	C1122.888794,1317.373535 1117.121582,1306.453369 1120.821167,1295.506470 
	C1121.550293,1293.348633 1123.034668,1291.445801 1124.683838,1288.847412 
z"/>
<path fill="#F3F3F3" opacity="1.000000" stroke="none" 
	d="
M1167.575928,1349.904419 
	C1165.160645,1353.621826 1163.358154,1357.511963 1160.317505,1359.319336 
	C1155.723145,1362.050049 1149.372559,1359.210693 1146.869873,1354.495239 
	C1144.346313,1349.740356 1145.829468,1343.600342 1150.261353,1340.455933 
	C1154.848267,1337.201416 1160.837402,1337.671631 1164.459961,1342.094604 
	C1166.036743,1344.019897 1166.607056,1346.769531 1167.575928,1349.904419 
z"/>
<path fill="#F7F7F7" opacity="1.000000" stroke="none" 
	d="
M1490.693848,1282.789062 
	C1495.149414,1285.661621 1499.752197,1287.618774 1502.393799,1291.074951 
	C1509.241455,1300.032959 1506.122559,1312.953613 1496.474976,1318.740967 
	C1486.602417,1324.663330 1473.248413,1320.591919 1468.548096,1310.226562 
	C1463.869141,1299.908203 1468.592285,1287.804443 1479.261719,1283.900635 
	C1482.547729,1282.698730 1486.370483,1282.963257 1490.693848,1282.789062 
z"/>
<path fill="#F2F1F1" opacity="1.000000" stroke="none" 
	d="
M1513.176758,1354.581055 
	C1510.354248,1358.875244 1506.988892,1360.454590 1502.673828,1360.110474 
	C1497.183105,1359.672363 1492.873901,1355.284424 1492.623535,1349.821777 
	C1492.384277,1344.602295 1496.469604,1339.520630 1501.729492,1338.494751 
	C1506.837158,1337.498413 1512.716431,1340.938721 1513.864990,1346.145386 
	C1514.403076,1348.584839 1513.715576,1351.294556 1513.176758,1354.581055 
z"/>
</svg>